<?xml version="1.0" encoding="UTF-8"?>
<svg xmlns="http://www.w3.org/2000/svg" xmlns:xlink="http://www.w3.org/1999/xlink" width="64px" height="64px" viewBox="0 0 64 64" version="1.1">
<defs>
<linearGradient id="linear0" gradientUnits="userSpaceOnUse" x1="256" y1="512" x2="256" y2="0" gradientTransform="matrix(0.125,0,0,0.125,0,0)">
<stop offset="0" style="stop-color:rgb(66.27451%,22.745098%,100%);stop-opacity:1;"/>
<stop offset="1" style="stop-color:rgb(100%,50.588235%,100%);stop-opacity:1;"/>
</linearGradient>
</defs>
<g id="surface1">
<path style=" stroke:none;fill-rule:nonzero;fill:url(#linear0);" d="M 17 41.375 C 15.964844 41.375 15.125 42.214844 15.125 43.25 C 15.125 44.285156 15.964844 45.125 17 45.125 C 18.035156 45.125 18.875 44.285156 18.875 43.25 C 18.875 42.214844 18.035156 41.375 17 41.375 Z M 17 33.875 C 15.964844 33.875 15.125 34.714844 15.125 35.75 C 15.125 36.785156 15.964844 37.625 17 37.625 C 18.035156 37.625 18.875 36.785156 18.875 35.75 C 18.875 34.714844 18.035156 33.875 17 33.875 Z M 27.855469 25.125 L 28.964844 25.484375 L 28.277344 26.433594 C 27.671875 27.269531 27.855469 28.441406 28.695312 29.050781 C 29.527344 29.65625 30.703125 29.476562 31.3125 28.636719 L 32 27.691406 L 32.6875 28.636719 C 33.296875 29.476562 34.472656 29.65625 35.304688 29.050781 C 36.144531 28.441406 36.328125 27.269531 35.722656 26.433594 L 35.035156 25.484375 L 36.144531 25.125 C 37.128906 24.804688 37.667969 23.746094 37.351562 22.761719 C 37.03125 21.777344 35.972656 21.238281 34.988281 21.558594 L 33.875 21.917969 L 33.875 20.75 C 33.875 19.714844 33.035156 18.875 32 18.875 C 30.964844 18.875 30.125 19.714844 30.125 20.75 L 30.125 21.917969 L 29.011719 21.558594 C 28.027344 21.238281 26.96875 21.777344 26.648438 22.761719 C 26.332031 23.746094 26.871094 24.804688 27.855469 25.125 Z M 24.054688 29.050781 C 24.894531 28.441406 25.078125 27.269531 24.472656 26.433594 L 23.785156 25.484375 L 24.894531 25.125 C 25.878906 24.804688 26.417969 23.746094 26.101562 22.761719 C 25.78125 21.777344 24.722656 21.238281 23.738281 21.558594 L 22.625 21.917969 L 22.625 20.75 C 22.625 19.714844 21.785156 18.875 20.75 18.875 C 19.714844 18.875 18.875 19.714844 18.875 20.75 L 18.875 21.917969 L 17.761719 21.558594 C 16.777344 21.238281 15.71875 21.777344 15.398438 22.761719 C 15.082031 23.746094 15.621094 24.804688 16.605469 25.125 L 17.714844 25.484375 L 17.027344 26.429688 C 16.421875 27.269531 16.605469 28.441406 17.445312 29.050781 C 18.277344 29.65625 19.453125 29.476562 20.0625 28.636719 L 20.75 27.691406 L 21.4375 28.636719 C 22.046875 29.476562 23.222656 29.65625 24.054688 29.050781 Z M 17 48.875 C 15.964844 48.875 15.125 49.714844 15.125 50.75 C 15.125 51.785156 15.964844 52.625 17 52.625 C 18.035156 52.625 18.875 51.785156 18.875 50.75 C 18.875 49.714844 18.035156 48.875 17 48.875 Z M 54.5 3.75 L 43.25 3.75 L 43.25 1.875 C 43.25 0.839844 42.410156 0 41.375 0 L 22.625 0 C 21.589844 0 20.75 0.839844 20.75 1.875 L 20.75 3.75 L 9.5 3.75 C 8.464844 3.75 7.625 4.589844 7.625 5.625 L 7.625 62.125 C 7.625 63.160156 8.464844 64 9.5 64 L 54.5 64 C 55.535156 64 56.375 63.160156 56.375 62.125 L 56.375 5.625 C 56.375 4.589844 55.535156 3.75 54.5 3.75 Z M 24.5 3.75 L 39.5 3.75 L 39.5 5.625 C 39.5 6.660156 38.660156 7.5 37.625 7.5 L 26.375 7.5 C 25.339844 7.5 24.5 6.660156 24.5 5.625 Z M 52.625 60.25 L 11.375 60.25 L 11.375 7.5 L 21.074219 7.5 C 21.847656 9.683594 23.929688 11.25 26.375 11.25 L 37.625 11.25 C 40.070312 11.25 42.152344 9.683594 42.925781 7.5 L 52.625 7.5 Z M 47 48.875 L 24.5 48.875 C 23.464844 48.875 22.625 49.714844 22.625 50.75 C 22.625 51.785156 23.464844 52.625 24.5 52.625 L 47 52.625 C 48.035156 52.625 48.875 51.785156 48.875 50.75 C 48.875 49.714844 48.035156 48.875 47 48.875 Z M 41.375 20.75 L 41.375 21.917969 L 40.261719 21.558594 C 39.277344 21.238281 38.21875 21.777344 37.898438 22.761719 C 37.582031 23.746094 38.121094 24.804688 39.105469 25.125 L 40.214844 25.484375 L 39.527344 26.429688 C 38.921875 27.269531 39.105469 28.441406 39.945312 29.050781 C 40.777344 29.65625 41.953125 29.476562 42.5625 28.636719 L 43.25 27.691406 L 43.9375 28.636719 C 44.546875 29.476562 45.722656 29.65625 46.554688 29.050781 C 47.394531 28.441406 47.578125 27.269531 46.972656 26.433594 L 46.285156 25.484375 L 47.394531 25.125 C 48.378906 24.804688 48.917969 23.746094 48.601562 22.761719 C 48.28125 21.777344 47.222656 21.238281 46.238281 21.558594 L 45.125 21.917969 L 45.125 20.75 C 45.125 19.714844 44.285156 18.875 43.25 18.875 C 42.214844 18.875 41.375 19.714844 41.375 20.75 Z M 47 33.875 L 24.5 33.875 C 23.464844 33.875 22.625 34.714844 22.625 35.75 C 22.625 36.785156 23.464844 37.625 24.5 37.625 L 47 37.625 C 48.035156 37.625 48.875 36.785156 48.875 35.75 C 48.875 34.714844 48.035156 33.875 47 33.875 Z M 47 41.375 L 24.5 41.375 C 23.464844 41.375 22.625 42.214844 22.625 43.25 C 22.625 44.285156 23.464844 45.125 24.5 45.125 L 47 45.125 C 48.035156 45.125 48.875 44.285156 48.875 43.25 C 48.875 42.214844 48.035156 41.375 47 41.375 Z M 47 41.375 "/>
</g>
</svg>
