<?xml version="1.0" encoding="UTF-8"?>
<svg xmlns="http://www.w3.org/2000/svg" xmlns:xlink="http://www.w3.org/1999/xlink" width="px" height="64px" viewBox="0 0 64 64" version="1.1">
<defs>
<linearGradient id="linear0" gradientUnits="userSpaceOnUse" x1="24" y1="43.888" x2="24" y2="4.112" gradientTransform="matrix(1.333333,0,0,1.333333,0,0)">
<stop offset="0" style="stop-color:rgb(33.333333%,43.921569%,100%);stop-opacity:1;"/>
<stop offset="1" style="stop-color:rgb(30.196078%,82.745098%,100%);stop-opacity:1;"/>
</linearGradient>
<linearGradient id="linear1" gradientUnits="userSpaceOnUse" x1="33.1375" y1="18.625" x2="33.1375" y2="11.1" gradientTransform="matrix(1.333333,0,0,1.333333,0,0)">
<stop offset="0" style="stop-color:rgb(66.27451%,22.745098%,100%);stop-opacity:1;"/>
<stop offset="1" style="stop-color:rgb(100%,50.588235%,100%);stop-opacity:1;"/>
</linearGradient>
</defs>
<g id="surface1">
<path style=" stroke:none;fill-rule:evenodd;fill:url(#linear0);" d="M 9.066406 37.589844 L 22.035156 26.773438 C 24.464844 24.742188 28.253906 24.917969 30.492188 27.15625 L 36.179688 32.851562 C 37.296875 33.972656 39.320312 34.242188 40.695312 33.457031 L 53.6875 26.03125 C 54.375 25.640625 54.933594 24.679688 54.933594 23.886719 L 54.933594 15.515625 C 54.933594 13.144531 53.007812 11.214844 50.632812 11.214844 L 13.367188 11.214844 C 10.992188 11.214844 9.066406 13.144531 9.066406 15.515625 Z M 54.933594 38.449219 C 54.933594 36.867188 56.21875 35.585938 57.800781 35.585938 C 59.382812 35.585938 60.667969 36.867188 60.667969 38.449219 L 60.667969 51.351562 C 60.667969 55.304688 57.457031 58.515625 53.5 58.515625 L 10.5 58.515625 C 6.542969 58.515625 3.332031 55.304688 3.332031 51.351562 L 3.332031 12.648438 C 3.332031 8.695312 6.542969 5.484375 10.5 5.484375 L 53.5 5.484375 C 57.457031 5.484375 60.667969 8.695312 60.667969 12.648438 L 60.667969 25.777344 C 60.667969 27.363281 59.550781 29.28125 58.175781 30.066406 L 42.238281 39.175781 C 39.492188 40.742188 35.441406 40.203125 33.203125 37.96875 L 28.121094 32.894531 C 27.003906 31.777344 25.109375 31.6875 23.890625 32.703125 L 10.902344 43.523438 L 9.066406 45.042969 L 9.066406 48.484375 C 9.066406 50.855469 10.992188 52.785156 13.367188 52.785156 L 50.632812 52.785156 C 53.007812 52.785156 54.933594 50.855469 54.933594 48.484375 Z M 54.933594 38.449219 "/>
<path style=" stroke:none;fill-rule:nonzero;fill:url(#linear1);" d="M 44.183594 14.800781 C 41.414062 14.800781 39.167969 17.046875 39.167969 19.816406 C 39.167969 22.585938 41.414062 24.832031 44.183594 24.832031 C 46.953125 24.832031 49.199219 22.585938 49.199219 19.816406 C 49.199219 17.046875 46.953125 14.800781 44.183594 14.800781 Z M 44.183594 14.800781 "/>
</g>
</svg>
