<?xml version="1.0" encoding="UTF-8"?>
<svg xmlns="http://www.w3.org/2000/svg" xmlns:xlink="http://www.w3.org/1999/xlink" width="64px" height="64px" viewBox="0 0 64 64" version="1.1">
<defs>
<linearGradient id="linear0" gradientUnits="userSpaceOnUse" x1="13.6615" y1="8" x2="3.33155" y2="4.79709" gradientTransform="matrix(4,0,0,4,0,0)">
<stop offset="0" style="stop-color:rgb(99.607843%,47.45098%,43.921569%);stop-opacity:1;"/>
<stop offset="1" style="stop-color:rgb(86.27451%,19.607843%,50.980392%);stop-opacity:1;"/>
</linearGradient>
</defs>
<g id="surface1">
<path style=" stroke:none;fill-rule:nonzero;fill:url(#linear0);" d="M 32 4 C 24.046875 4 17.601562 10.269531 17.601562 18 L 17.601562 30 C 17.601562 31.105469 16.703125 32 15.601562 32 L 10 32 C 8.894531 32 8 32.894531 8 34 L 8 58 C 8 59.105469 8.894531 60 10 60 L 54 60 C 55.105469 60 56 59.105469 56 58 L 56 34 C 56 32.894531 55.105469 32 54 32 L 48.398438 32 C 47.296875 32 46.398438 31.105469 46.398438 30 L 46.398438 18 C 46.398438 10.269531 39.953125 4 32 4 Z M 32 8.667969 C 37.300781 8.667969 41.601562 12.84375 41.601562 18 L 41.601562 30 C 41.601562 31.105469 40.703125 32 39.601562 32 L 24.398438 32 C 23.296875 32 22.398438 31.105469 22.398438 30 L 22.398438 18 C 22.398438 12.84375 26.699219 8.667969 32 8.667969 Z M 32 8.667969 "/>
</g>
</svg>
