<?xml version="1.0" encoding="UTF-8"?>
<svg xmlns="http://www.w3.org/2000/svg" xmlns:xlink="http://www.w3.org/1999/xlink" width="px" height="64px" viewBox="0 0 64 64" version="1.1">
<defs>
<linearGradient id="linear0" gradientUnits="userSpaceOnUse" x1="21.3054" y1="124.84" x2="213.302" y2="124.84" gradientTransform="matrix(0.25,0,0,0.25,0,0)">
<stop offset="0" style="stop-color:rgb(99.215686%,22.745098%,51.764706%);stop-opacity:1;"/>
<stop offset="1" style="stop-color:rgb(100%,65.098039%,55.294118%);stop-opacity:1;"/>
</linearGradient>
<linearGradient id="linear1" gradientUnits="userSpaceOnUse" x1="117.313" y1="126.736" x2="255.97" y2="126.736" gradientTransform="matrix(0.25,0,0,0.25,0,0)">
<stop offset="0" style="stop-color:rgb(99.215686%,22.745098%,51.764706%);stop-opacity:1;"/>
<stop offset="1" style="stop-color:rgb(100%,65.098039%,55.294118%);stop-opacity:1;"/>
</linearGradient>
</defs>
<g id="surface1">
<path style=" stroke:none;fill-rule:nonzero;fill:url(#linear0);" d="M 32 58.667969 C 17.273438 58.667969 5.332031 46.726562 5.332031 32 C 5.332031 17.273438 17.273438 5.332031 32 5.332031 C 36.140625 5.332031 40.222656 6.292969 43.929688 8.144531 C 46.882812 9.621094 49.535156 11.636719 51.746094 14.074219 C 52.4375 14.835938 51.867188 16 50.835938 16 L 46.578125 16 C 46.273438 16 45.980469 15.886719 45.75 15.691406 C 42.734375 13.152344 39.074219 11.492188 35.171875 10.90625 C 31.109375 10.292969 26.960938 10.867188 23.21875 12.558594 C 19.476562 14.246094 16.300781 16.980469 14.074219 20.429688 C 11.847656 23.878906 10.664062 27.898438 10.664062 32.003906 C 10.664062 36.109375 11.847656 40.128906 14.078125 43.574219 C 16.304688 47.023438 19.480469 49.757812 23.222656 51.445312 C 26.964844 53.136719 31.113281 53.707031 35.171875 53.097656 C 39.078125 52.507812 42.738281 50.851562 45.75 48.308594 C 45.984375 48.113281 46.277344 48 46.582031 48 L 50.839844 48 C 51.867188 48 52.4375 49.164062 51.746094 49.925781 C 49.535156 52.363281 46.886719 54.378906 43.929688 55.855469 C 40.226562 57.707031 36.140625 58.671875 32 58.667969 Z M 32 58.667969 "/>
<path style=" stroke:none;fill-rule:nonzero;fill:url(#linear1);" d="M 50.667969 35.917969 L 50.667969 40.066406 C 50.667969 41.113281 51.878906 41.695312 52.699219 41.042969 L 62.78125 32.976562 C 63.40625 32.476562 63.40625 31.523438 62.78125 31.023438 L 52.699219 22.957031 C 51.878906 22.304688 50.667969 22.886719 50.667969 23.933594 L 50.667969 28.082031 C 50.667969 28.773438 50.105469 29.332031 49.417969 29.332031 L 30.582031 29.332031 C 29.894531 29.332031 29.332031 29.894531 29.332031 30.582031 L 29.332031 33.417969 C 29.332031 34.105469 29.894531 34.667969 30.582031 34.667969 L 49.417969 34.667969 C 50.105469 34.667969 50.667969 35.226562 50.667969 35.917969 Z M 50.667969 35.917969 "/>
</g>
</svg>
