<?xml version="1.0" encoding="UTF-8"?>
<svg xmlns="http://www.w3.org/2000/svg" xmlns:xlink="http://www.w3.org/1999/xlink" width="px" height="64px" viewBox="0 0 64 64" version="1.1">
<defs>
<linearGradient id="linear0" gradientUnits="userSpaceOnUse" x1="256" y1="469.333" x2="256" y2="42.6771" >
<stop offset="0" style="stop-color:rgb(66.27451%,22.745098%,100%);stop-opacity:1;"/>
<stop offset="1" style="stop-color:rgb(100%,50.588235%,100%);stop-opacity:1;"/>
</linearGradient>
<linearGradient id="linear1" gradientUnits="userSpaceOnUse" x1="256" y1="469.333" x2="256" y2="42.6771" >
<stop offset="0" style="stop-color:rgb(66.27451%,22.745098%,100%);stop-opacity:1;"/>
<stop offset="1" style="stop-color:rgb(100%,50.588235%,100%);stop-opacity:1;"/>
</linearGradient>
<linearGradient id="linear2" gradientUnits="userSpaceOnUse" x1="256" y1="192" x2="256" y2="320" gradientTransform="matrix(0.125,0,0,0.125,0,0)">
<stop offset="0" style="stop-color:rgb(86.27451%,9.411765%,98.823529%);stop-opacity:1;"/>
<stop offset="1" style="stop-color:rgb(55.686275%,11.764706%,100%);stop-opacity:1;"/>
</linearGradient>
<linearGradient id="linear3" gradientUnits="userSpaceOnUse" x1="256" y1="192" x2="256" y2="320" gradientTransform="matrix(0.125,0,0,0.125,0,0)">
<stop offset="0" style="stop-color:rgb(86.27451%,9.411765%,98.823529%);stop-opacity:1;"/>
<stop offset="1" style="stop-color:rgb(55.686275%,11.764706%,100%);stop-opacity:1;"/>
</linearGradient>
</defs>
<g id="surface1">
<path style="fill-rule:nonzero;fill:url(#linear0);stroke-width:8;stroke-linecap:butt;stroke-linejoin:miter;stroke:url(#linear1);stroke-miterlimit:4;" d="M 437.34375 341.34375 L 352 341.34375 C 349.15625 341.34375 346.46875 342.46875 344.46875 344.46875 C 342.46875 346.46875 341.34375 349.15625 341.34375 352 C 341.34375 354.84375 342.46875 357.53125 344.46875 359.53125 C 346.46875 361.53125 349.15625 362.65625 352 362.65625 L 415.5 362.65625 C 398 388.84375 374.34375 410.34375 346.59375 425.21875 C 318.84375 440.09375 287.84375 447.9375 256.375 448 C 228.5625 448.03125 201.09375 442 175.84375 430.375 C 150.59375 418.75 128.1875 401.8125 110.125 380.65625 C 92.0625 359.53125 78.8125 334.75 71.25 308 C 63.71875 281.25 62.0625 253.1875 66.40625 225.71875 C 66.75 223 66.03125 220.21875 64.375 218.03125 C 62.71875 215.8125 60.28125 214.34375 57.5625 213.875 C 54.84375 213.4375 52.0625 214.0625 49.78125 215.625 C 47.5 217.1875 45.9375 219.5625 45.375 222.28125 C 43.5625 233.4375 42.65625 244.6875 42.65625 256 C 42.78125 373.75 138.25 469.21875 256 469.34375 C 289.125 469.3125 321.78125 461.59375 351.40625 446.8125 C 381 432 406.78125 410.5 426.65625 384.03125 L 426.65625 437.34375 C 426.65625 440.1875 427.78125 442.90625 429.78125 444.90625 C 431.78125 446.90625 434.5 448.03125 437.34375 448.03125 C 440.15625 448.03125 442.875 446.90625 444.875 444.90625 C 446.875 442.90625 448 440.1875 448 437.34375 L 448 351.96875 C 448 349.15625 446.875 346.4375 444.875 344.4375 C 442.875 342.46875 440.15625 341.34375 437.34375 341.34375 Z M 357.0625 68.1875 C 262.8125 17.4375 147.65625 44.9375 85.34375 128.0625 L 85.34375 74.65625 C 85.34375 71.84375 84.21875 69.125 82.21875 67.125 C 80.21875 65.125 77.5 64 74.65625 64 C 71.84375 64 69.125 65.125 67.125 67.125 C 65.125 69.125 64 71.84375 64 74.65625 L 64 160 C 64 162.84375 65.125 165.53125 67.125 167.53125 C 69.125 169.53125 71.84375 170.65625 74.65625 170.65625 L 160 170.65625 C 162.84375 170.65625 165.53125 169.53125 167.53125 167.53125 C 169.53125 165.53125 170.65625 162.84375 170.65625 160 C 170.65625 157.15625 169.53125 154.46875 167.53125 152.46875 C 165.53125 150.46875 162.84375 149.34375 160 149.34375 L 96.5 149.34375 C 114 123.15625 137.65625 101.65625 165.40625 86.78125 C 193.15625 71.90625 224.15625 64.0625 255.625 64 C 283.4375 63.96875 310.90625 70 336.15625 81.625 C 361.40625 93.25 383.8125 110.21875 401.875 131.34375 C 419.9375 152.5 433.1875 177.28125 440.71875 204.03125 C 448.28125 230.78125 449.9375 258.875 445.5625 286.3125 C 445.34375 287.6875 445.40625 289.125 445.71875 290.46875 C 446.03125 291.84375 446.625 293.125 447.4375 294.25 C 448.25 295.40625 449.3125 296.34375 450.5 297.09375 C 451.6875 297.84375 453 298.3125 454.375 298.5625 C 455.78125 298.78125 457.1875 298.71875 458.5625 298.40625 C 459.90625 298.09375 461.1875 297.5 462.34375 296.6875 C 463.46875 295.84375 464.4375 294.8125 465.15625 293.625 C 465.90625 292.4375 466.40625 291.125 466.625 289.71875 C 468.4375 278.5625 469.34375 267.3125 469.34375 256 C 469.3125 217.46875 458.84375 179.6875 439.09375 146.625 C 419.3125 113.5625 390.96875 86.4375 357.0625 68.1875 Z M 357.0625 68.1875 " transform="matrix(0.125,0,0,0.125,0,0)"/>
<path style=" stroke:none;fill-rule:evenodd;fill:url(#linear2);" d="M 40 32 C 40 29.878906 39.15625 27.84375 37.65625 26.34375 C 36.15625 24.84375 34.121094 24 32 24 C 29.878906 24 27.84375 24.84375 26.34375 26.34375 C 24.84375 27.84375 24 29.878906 24 32 C 24 34.121094 24.84375 36.15625 26.34375 37.65625 C 27.84375 39.15625 29.878906 40 32 40 C 34.121094 40 36.15625 39.15625 37.65625 37.65625 C 39.15625 36.15625 40 34.121094 40 32 Z M 26.667969 32 C 26.667969 30.585938 27.230469 29.230469 28.230469 28.230469 C 29.230469 27.230469 30.585938 26.667969 32 26.667969 C 33.414062 26.667969 34.769531 27.230469 35.769531 28.230469 C 36.773438 29.230469 37.332031 30.585938 37.332031 32 C 37.332031 33.414062 36.773438 34.769531 35.769531 35.769531 C 34.769531 36.773438 33.414062 37.332031 32 37.332031 C 30.585938 37.332031 29.230469 36.773438 28.230469 35.769531 C 27.230469 34.769531 26.667969 33.414062 26.667969 32 Z M 26.667969 32 "/>
<path style=" stroke:none;fill-rule:nonzero;fill:url(#linear3);" d="M 37.304688 26.695312 C 38.710938 28.101562 39.5 30.011719 39.5 32 L 40.5 32 C 40.5 29.746094 39.605469 27.582031 38.011719 25.988281 Z M 32 24.5 C 33.988281 24.5 35.898438 25.289062 37.304688 26.695312 L 38.011719 25.988281 C 36.417969 24.394531 34.253906 23.5 32 23.5 Z M 26.695312 26.695312 C 28.101562 25.289062 30.011719 24.5 32 24.5 L 32 23.5 C 29.746094 23.5 27.582031 24.394531 25.988281 25.988281 Z M 24.5 32 C 24.5 30.011719 25.289062 28.101562 26.695312 26.695312 L 25.988281 25.988281 C 24.394531 27.582031 23.5 29.746094 23.5 32 Z M 26.695312 37.304688 C 25.289062 35.898438 24.5 33.988281 24.5 32 L 23.5 32 C 23.5 34.253906 24.394531 36.417969 25.988281 38.011719 Z M 32 39.5 C 30.011719 39.5 28.101562 38.710938 26.695312 37.304688 L 25.988281 38.011719 C 27.582031 39.605469 29.746094 40.5 32 40.5 Z M 37.304688 37.304688 C 35.898438 38.710938 33.988281 39.5 32 39.5 L 32 40.5 C 34.253906 40.5 36.417969 39.605469 38.011719 38.011719 Z M 39.5 32 C 39.5 33.988281 38.710938 35.898438 37.304688 37.304688 L 38.011719 38.011719 C 39.605469 36.417969 40.5 34.253906 40.5 32 Z M 27.875 27.875 C 26.78125 28.96875 26.167969 30.453125 26.167969 32 L 27.167969 32 C 27.167969 30.71875 27.675781 29.488281 28.582031 28.582031 Z M 32 26.167969 C 30.453125 26.167969 28.96875 26.78125 27.875 27.875 L 28.582031 28.582031 C 29.488281 27.675781 30.71875 27.167969 32 27.167969 Z M 36.125 27.875 C 35.03125 26.78125 33.546875 26.167969 32 26.167969 L 32 27.167969 C 33.28125 27.167969 34.511719 27.675781 35.417969 28.582031 Z M 37.832031 32 C 37.832031 30.453125 37.21875 28.96875 36.125 27.875 L 35.417969 28.582031 C 36.324219 29.488281 36.832031 30.71875 36.832031 32 Z M 36.125 36.125 C 37.21875 35.03125 37.832031 33.546875 37.832031 32 L 36.832031 32 C 36.832031 33.28125 36.324219 34.511719 35.417969 35.417969 Z M 32 37.832031 C 33.546875 37.832031 35.03125 37.21875 36.125 36.125 L 35.417969 35.417969 C 34.511719 36.324219 33.28125 36.832031 32 36.832031 Z M 27.875 36.125 C 28.96875 37.21875 30.453125 37.832031 32 37.832031 L 32 36.832031 C 30.71875 36.832031 29.488281 36.324219 28.582031 35.417969 Z M 26.167969 32 C 26.167969 33.546875 26.78125 35.03125 27.875 36.125 L 28.582031 35.417969 C 27.675781 34.511719 27.167969 33.28125 27.167969 32 Z M 26.167969 32 "/>
</g>
</svg>
