<?xml version="1.0" encoding="UTF-8"?>
<svg xmlns="http://www.w3.org/2000/svg" xmlns:xlink="http://www.w3.org/1999/xlink" width="px" height="64px" viewBox="0 0 64 64" version="1.1">
<defs>
<linearGradient id="linear0" gradientUnits="userSpaceOnUse" x1="8.61533" y1="50.2582" x2="50.2506" y2="8.66002" >
<stop offset="0" style="stop-color:rgb(0%,44.705882%,100%);stop-opacity:1;"/>
<stop offset="1" style="stop-color:rgb(0%,89.803922%,63.137255%);stop-opacity:1;"/>
</linearGradient>
<linearGradient id="linear1" gradientUnits="userSpaceOnUse" x1="13.7757" y1="23.0271" x2="23.1348" y2="12.9063" >
<stop offset="0" style="stop-color:rgb(0%,44.705882%,100%);stop-opacity:1;"/>
<stop offset="1" style="stop-color:rgb(0%,89.803922%,63.137255%);stop-opacity:1;"/>
</linearGradient>
<linearGradient id="linear2" gradientUnits="userSpaceOnUse" x1="35.4823" y1="22.8874" x2="44.7373" y2="13.2441" >
<stop offset="0" style="stop-color:rgb(0%,44.705882%,100%);stop-opacity:1;"/>
<stop offset="1" style="stop-color:rgb(0%,89.803922%,63.137255%);stop-opacity:1;"/>
</linearGradient>
<linearGradient id="linear3" gradientUnits="userSpaceOnUse" x1="13.7858" y1="45.0987" x2="23.8905" y2="34.9611" >
<stop offset="0" style="stop-color:rgb(0%,44.705882%,100%);stop-opacity:1;"/>
<stop offset="1" style="stop-color:rgb(0%,89.803922%,63.137255%);stop-opacity:1;"/>
</linearGradient>
<linearGradient id="linear4" gradientUnits="userSpaceOnUse" x1="46.6784" y1="64" x2="46.6784" y2="29.2906" >
<stop offset="0" style="stop-color:rgb(0.784314%,66.666667%,57.647059%);stop-opacity:1;"/>
<stop offset="1" style="stop-color:rgb(40.392157%,100%,50.196078%);stop-opacity:1;"/>
</linearGradient>
</defs>
<g id="surface1">
<path style=" stroke:none;fill-rule:nonzero;fill:url(#linear0);" d="M 8.234375 0.300781 C 9.347656 0.03125 10.5 0 11.640625 0 C 23.871094 0.0234375 36.109375 -0.0117188 48.339844 0.0195312 C 52.351562 0.0507812 56.171875 2.59375 57.824219 6.238281 C 58.625 7.910156 58.863281 9.789062 58.824219 11.628906 C 58.800781 15.511719 58.839844 19.390625 58.8125 23.269531 C 58.996094 24.996094 57.125 26.492188 55.488281 25.921875 C 54.34375 25.609375 53.566406 24.460938 53.628906 23.289062 C 53.582031 19.09375 53.644531 14.898438 53.605469 10.703125 C 53.625 8.464844 52.121094 6.335938 50.027344 5.570312 C 48.78125 5.066406 47.410156 5.21875 46.101562 5.195312 C 34.324219 5.210938 22.546875 5.195312 10.777344 5.207031 C 8.5625 5.171875 6.4375 6.609375 5.613281 8.660156 C 5.082031 9.882812 5.179688 11.246094 5.167969 12.546875 C 5.191406 24.328125 5.164062 36.113281 5.179688 47.894531 C 5.046875 50.746094 7.382812 53.484375 10.261719 53.640625 C 14.757812 53.765625 19.257812 53.589844 23.746094 53.714844 C 25.101562 53.753906 26.242188 55.054688 26.140625 56.398438 C 26.117188 57.695312 24.972656 58.882812 23.652344 58.859375 C 19.082031 58.878906 14.507812 58.90625 9.929688 58.84375 C 4.554688 58.578125 -0.0351562 53.691406 0.0117188 48.308594 C -0.0078125 35.785156 0 23.261719 0.0078125 10.738281 C -0.078125 5.902344 3.527344 1.351562 8.234375 0.300781 Z M 8.234375 0.300781 "/>
<path style=" stroke:none;fill-rule:nonzero;fill:url(#linear1);" d="M 16.789062 11.976562 C 19.199219 11.511719 21.699219 11.757812 24.140625 11.773438 C 26.191406 11.957031 26.746094 15.066406 24.933594 16 C 22.59375 16.902344 19.894531 15.785156 17.550781 16.632812 C 15.667969 17.695312 16.46875 20.183594 16.3125 21.941406 C 16.460938 23.160156 15.917969 24.578125 14.613281 24.882812 C 13.28125 25.292969 11.714844 24.242188 11.734375 22.816406 C 11.730469 20.707031 11.46875 18.527344 12.0625 16.472656 C 12.777344 14.316406 14.601562 12.582031 16.789062 11.976562 Z M 16.789062 11.976562 "/>
<path style=" stroke:none;fill-rule:nonzero;fill:url(#linear2);" d="M 35.058594 11.824219 C 36.796875 11.617188 38.5625 11.75 40.316406 11.734375 C 43.863281 11.714844 47.042969 14.847656 47.09375 18.390625 C 47.101562 19.996094 47.21875 21.625 47.003906 23.226562 C 46.53125 25.050781 43.792969 25.382812 42.863281 23.757812 C 41.800781 21.574219 43.609375 18.414062 41.421875 16.722656 C 39.304688 15.71875 36.757812 16.90625 34.605469 16.015625 C 32.902344 15.140625 33.207031 12.316406 35.058594 11.824219 Z M 35.058594 11.824219 "/>
<path style=" stroke:none;fill-rule:nonzero;fill:url(#linear3);" d="M 12.742188 33.289062 C 14.429688 32.101562 16.722656 33.84375 16.308594 35.785156 C 16.621094 37.917969 15.371094 40.976562 17.65625 42.308594 C 19.894531 42.960938 22.316406 42.21875 24.59375 42.71875 C 26.5 43.363281 26.507812 46.402344 24.570312 47.023438 C 22.667969 47.332031 20.71875 47.105469 18.796875 47.167969 C 16.007812 47.25 13.308594 45.476562 12.257812 42.90625 C 11.410156 40.945312 11.78125 38.773438 11.691406 36.707031 C 11.691406 35.515625 11.539062 33.992188 12.742188 33.289062 Z M 12.742188 33.289062 "/>
<path style=" stroke:none;fill-rule:nonzero;fill:url(#linear4);" d="M 42.265625 29.882812 C 49.949219 27.710938 58.730469 31.691406 62.171875 38.886719 C 64.515625 43.5 64.609375 49.175781 62.441406 53.878906 C 60.785156 57.527344 57.8125 60.554688 54.199219 62.289062 C 49.761719 64.449219 44.390625 64.570312 39.867188 62.609375 C 35.96875 60.960938 32.742188 57.816406 30.96875 53.976562 C 28.925781 49.632812 28.824219 44.441406 30.671875 40.011719 C 32.6875 35.078125 37.105469 31.210938 42.265625 29.882812 Z M 44.882812 34.664062 C 39.941406 35.347656 35.710938 39.386719 34.789062 44.292969 C 33.761719 49.082031 36.027344 54.328125 40.1875 56.90625 C 44.964844 60.089844 51.902344 59.128906 55.65625 54.792969 C 59.523438 50.683594 59.84375 43.839844 56.363281 39.394531 C 53.773438 35.875 49.199219 33.972656 44.882812 34.664062 Z M 44.882812 34.664062 "/>
</g>
</svg>
