<?xml version="1.0" encoding="UTF-8"?>
<svg xmlns="http://www.w3.org/2000/svg" xmlns:xlink="http://www.w3.org/1999/xlink" width="px" height="64px" viewBox="0 0 64 64" version="1.1">
<defs>
<linearGradient id="linear0" gradientUnits="userSpaceOnUse" x1="32.0005" y1="52.2758" x2="32.0005" y2="11.7241" >
<stop offset="0" style="stop-color:rgb(33.333333%,43.921569%,100%);stop-opacity:1;"/>
<stop offset="1" style="stop-color:rgb(30.196078%,82.745098%,100%);stop-opacity:1;"/>
</linearGradient>
<linearGradient id="linear1" gradientUnits="userSpaceOnUse" x1="32.0005" y1="52.2758" x2="32.0005" y2="11.7241" >
<stop offset="0" style="stop-color:rgb(33.333333%,43.921569%,100%);stop-opacity:1;"/>
<stop offset="1" style="stop-color:rgb(30.196078%,82.745098%,100%);stop-opacity:1;"/>
</linearGradient>
<linearGradient id="linear2" gradientUnits="userSpaceOnUse" x1="32.0005" y1="52.2758" x2="32.0005" y2="11.7241" >
<stop offset="0" style="stop-color:rgb(33.333333%,43.921569%,100%);stop-opacity:1;"/>
<stop offset="1" style="stop-color:rgb(30.196078%,82.745098%,100%);stop-opacity:1;"/>
</linearGradient>
<linearGradient id="linear3" gradientUnits="userSpaceOnUse" x1="32.0005" y1="52.2758" x2="32.0005" y2="11.7241" >
<stop offset="0" style="stop-color:rgb(33.333333%,43.921569%,100%);stop-opacity:1;"/>
<stop offset="1" style="stop-color:rgb(30.196078%,82.745098%,100%);stop-opacity:1;"/>
</linearGradient>
<linearGradient id="linear4" gradientUnits="userSpaceOnUse" x1="32.0005" y1="52.2758" x2="32.0005" y2="11.7241" >
<stop offset="0" style="stop-color:rgb(33.333333%,43.921569%,100%);stop-opacity:1;"/>
<stop offset="1" style="stop-color:rgb(30.196078%,82.745098%,100%);stop-opacity:1;"/>
</linearGradient>
<linearGradient id="linear5" gradientUnits="userSpaceOnUse" x1="32.0005" y1="52.2758" x2="32.0005" y2="11.7241" >
<stop offset="0" style="stop-color:rgb(33.333333%,43.921569%,100%);stop-opacity:1;"/>
<stop offset="1" style="stop-color:rgb(30.196078%,82.745098%,100%);stop-opacity:1;"/>
</linearGradient>
<linearGradient id="linear6" gradientUnits="userSpaceOnUse" x1="32.0005" y1="52.2758" x2="32.0005" y2="11.7241" >
<stop offset="0" style="stop-color:rgb(33.333333%,43.921569%,100%);stop-opacity:1;"/>
<stop offset="1" style="stop-color:rgb(30.196078%,82.745098%,100%);stop-opacity:1;"/>
</linearGradient>
<linearGradient id="linear7" gradientUnits="userSpaceOnUse" x1="32.0005" y1="52.2758" x2="32.0005" y2="11.7241" >
<stop offset="0" style="stop-color:rgb(33.333333%,43.921569%,100%);stop-opacity:1;"/>
<stop offset="1" style="stop-color:rgb(30.196078%,82.745098%,100%);stop-opacity:1;"/>
</linearGradient>
<linearGradient id="linear8" gradientUnits="userSpaceOnUse" x1="32" y1="60" x2="32" y2="4" >
<stop offset="0" style="stop-color:rgb(33.333333%,43.921569%,100%);stop-opacity:1;"/>
<stop offset="1" style="stop-color:rgb(30.196078%,82.745098%,100%);stop-opacity:1;"/>
</linearGradient>
</defs>
<g id="surface1">
<path style=" stroke:none;fill-rule:nonzero;fill:url(#linear0);" d="M 48.222656 11.722656 C 50.460938 11.722656 52.277344 13.566406 52.277344 15.839844 L 52.277344 22.179688 C 52.277344 23.140625 51.5 23.917969 50.539062 23.917969 C 49.578125 23.917969 48.800781 23.140625 48.800781 22.179688 L 48.800781 15.839844 C 48.800781 15.511719 48.542969 15.25 48.222656 15.25 L 41.875 15.25 C 40.898438 15.25 40.109375 14.460938 40.109375 13.488281 C 40.109375 12.511719 40.898438 11.722656 41.875 11.722656 Z M 48.222656 11.722656 "/>
<path style=" stroke:none;fill-rule:nonzero;fill:url(#linear1);" d="M 52.277344 48.160156 C 52.277344 50.433594 50.460938 52.277344 48.222656 52.277344 L 41.875 52.277344 C 40.898438 52.277344 40.109375 51.488281 40.109375 50.511719 C 40.109375 49.539062 40.898438 48.75 41.875 48.75 L 48.222656 48.75 C 48.542969 48.75 48.800781 48.488281 48.800781 48.160156 L 48.800781 41.820312 C 48.800781 40.859375 49.578125 40.082031 50.539062 40.082031 C 51.5 40.082031 52.277344 40.859375 52.277344 41.820312 Z M 52.277344 48.160156 "/>
<path style=" stroke:none;fill-rule:nonzero;fill:url(#linear2);" d="M 15.78125 52.277344 C 13.539062 52.277344 11.722656 50.433594 11.722656 48.160156 L 11.722656 41.820312 C 11.722656 40.859375 12.503906 40.082031 13.460938 40.082031 C 14.421875 40.082031 15.199219 40.859375 15.199219 41.820312 L 15.199219 48.160156 C 15.199219 48.488281 15.460938 48.75 15.78125 48.75 L 22.128906 48.75 C 23.101562 48.75 23.890625 49.539062 23.890625 50.511719 C 23.890625 51.488281 23.101562 52.277344 22.128906 52.277344 Z M 15.78125 52.277344 "/>
<path style=" stroke:none;fill-rule:nonzero;fill:url(#linear3);" d="M 11.722656 15.839844 C 11.722656 13.566406 13.539062 11.722656 15.78125 11.722656 L 22.128906 11.722656 C 23.101562 11.722656 23.890625 12.511719 23.890625 13.488281 C 23.890625 14.460938 23.101562 15.25 22.128906 15.25 L 15.78125 15.25 C 15.460938 15.25 15.199219 15.511719 15.199219 15.839844 L 15.199219 22.179688 C 15.199219 23.140625 14.421875 23.917969 13.460938 23.917969 C 12.503906 23.917969 11.722656 23.140625 11.722656 22.179688 Z M 11.722656 15.839844 "/>
<path style="fill:none;stroke-width:2;stroke-linecap:butt;stroke-linejoin:miter;stroke:url(#linear4);stroke-miterlimit:4;" d="M 48.222656 11.722656 C 50.460938 11.722656 52.277344 13.566406 52.277344 15.839844 L 52.277344 22.179688 C 52.277344 23.140625 51.5 23.917969 50.539062 23.917969 C 49.578125 23.917969 48.800781 23.140625 48.800781 22.179688 L 48.800781 15.839844 C 48.800781 15.511719 48.542969 15.25 48.222656 15.25 L 41.875 15.25 C 40.898438 15.25 40.109375 14.460938 40.109375 13.488281 C 40.109375 12.511719 40.898438 11.722656 41.875 11.722656 Z M 48.222656 11.722656 "/>
<path style="fill:none;stroke-width:2;stroke-linecap:butt;stroke-linejoin:miter;stroke:url(#linear5);stroke-miterlimit:4;" d="M 52.277344 48.160156 C 52.277344 50.433594 50.460938 52.277344 48.222656 52.277344 L 41.875 52.277344 C 40.898438 52.277344 40.109375 51.488281 40.109375 50.511719 C 40.109375 49.539062 40.898438 48.75 41.875 48.75 L 48.222656 48.75 C 48.542969 48.75 48.800781 48.488281 48.800781 48.160156 L 48.800781 41.820312 C 48.800781 40.859375 49.578125 40.082031 50.539062 40.082031 C 51.5 40.082031 52.277344 40.859375 52.277344 41.820312 Z M 52.277344 48.160156 "/>
<path style="fill:none;stroke-width:2;stroke-linecap:butt;stroke-linejoin:miter;stroke:url(#linear6);stroke-miterlimit:4;" d="M 15.78125 52.277344 C 13.539062 52.277344 11.722656 50.433594 11.722656 48.160156 L 11.722656 41.820312 C 11.722656 40.859375 12.503906 40.082031 13.460938 40.082031 C 14.421875 40.082031 15.199219 40.859375 15.199219 41.820312 L 15.199219 48.160156 C 15.199219 48.488281 15.460938 48.75 15.78125 48.75 L 22.128906 48.75 C 23.101562 48.75 23.890625 49.539062 23.890625 50.511719 C 23.890625 51.488281 23.101562 52.277344 22.128906 52.277344 Z M 15.78125 52.277344 "/>
<path style="fill:none;stroke-width:2;stroke-linecap:butt;stroke-linejoin:miter;stroke:url(#linear7);stroke-miterlimit:4;" d="M 11.722656 15.839844 C 11.722656 13.566406 13.539062 11.722656 15.78125 11.722656 L 22.128906 11.722656 C 23.101562 11.722656 23.890625 12.511719 23.890625 13.488281 C 23.890625 14.460938 23.101562 15.25 22.128906 15.25 L 15.78125 15.25 C 15.460938 15.25 15.199219 15.511719 15.199219 15.839844 L 15.199219 22.179688 C 15.199219 23.140625 14.421875 23.917969 13.460938 23.917969 C 12.503906 23.917969 11.722656 23.140625 11.722656 22.179688 Z M 11.722656 15.839844 "/>
<path style="fill:none;stroke-width:5;stroke-linecap:butt;stroke-linejoin:miter;stroke:url(#linear8);stroke-miterlimit:4;" d="M 12 4 L 52 4 C 56.417969 4 60 7.582031 60 12 L 60 52 C 60 56.417969 56.417969 60 52 60 L 12 60 C 7.582031 60 4 56.417969 4 52 L 4 12 C 4 7.582031 7.582031 4 12 4 Z M 12 4 "/>
</g>
</svg>
