<?xml version="1.0" encoding="UTF-8"?>
<svg xmlns="http://www.w3.org/2000/svg" xmlns:xlink="http://www.w3.org/1999/xlink" width="px" height="64px" viewBox="0 0 64 64" version="1.1">
<defs>
<linearGradient id="linear0" gradientUnits="userSpaceOnUse" x1="16.4008" y1="17.5457" x2="16.4008" y2="3" gradientTransform="matrix(2,0,0,2,0,0)">
<stop offset="0" style="stop-color:rgb(99.215686%,22.745098%,51.764706%);stop-opacity:1;"/>
<stop offset="1" style="stop-color:rgb(100%,65.098039%,55.294118%);stop-opacity:1;"/>
</linearGradient>
<linearGradient id="linear1" gradientUnits="userSpaceOnUse" x1="16.4016" y1="29.8173" x2="16.4016" y2="5.67773" gradientTransform="matrix(2,0,0,2,0,0)">
<stop offset="0" style="stop-color:rgb(99.215686%,22.745098%,51.764706%);stop-opacity:1;"/>
<stop offset="1" style="stop-color:rgb(100%,65.098039%,55.294118%);stop-opacity:1;"/>
</linearGradient>
</defs>
<g id="surface1">
<path style=" stroke:none;fill-rule:nonzero;fill:url(#linear0);" d="M 32.015625 6 L 33.589844 6 C 35.46875 6.378906 36.992188 8.050781 37.023438 9.984375 C 37.070312 16.730469 37.023438 23.480469 37.046875 30.226562 C 37.070312 31.421875 36.851562 32.703125 36.027344 33.621094 C 34.96875 34.882812 33.121094 35.40625 31.546875 34.898438 C 30.21875 34.515625 29.109375 33.414062 28.757812 32.078125 C 28.570312 31.414062 28.554688 30.71875 28.554688 30.03125 C 28.582031 23.351562 28.535156 16.671875 28.578125 9.992188 C 28.609375 8.054688 30.132812 6.378906 32.015625 6 Z M 32.015625 6 "/>
<path style=" stroke:none;fill-rule:nonzero;fill:url(#linear1);" d="M 16.996094 11.597656 C 18.550781 10.960938 20.542969 11.765625 21.128906 13.347656 C 21.691406 14.675781 21.1875 16.304688 20.023438 17.140625 C 14.734375 21.308594 11.75 28.226562 12.472656 34.90625 C 13.027344 41.230469 16.816406 47.144531 22.300781 50.378906 C 25.257812 52.175781 28.691406 53.113281 32.144531 53.292969 C 37.101562 53.414062 42.105469 51.738281 45.894531 48.535156 C 51.175781 44.234375 53.996094 37.144531 53.0625 30.417969 C 52.519531 25.878906 50.296875 21.605469 47.039062 18.402344 C 46.035156 17.453125 44.644531 16.695312 44.324219 15.242188 C 43.828125 13.421875 45.3125 11.464844 47.195312 11.367188 C 48.828125 11.222656 50.003906 12.535156 51.117188 13.511719 C 54.53125 16.679688 57.09375 20.742188 58.4375 25.191406 C 59.8125 29.664062 59.984375 34.492188 58.902344 39.046875 C 57.28125 46.121094 52.578125 52.425781 46.242188 56.023438 C 42.191406 58.402344 37.484375 59.578125 32.792969 59.632812 C 28.425781 59.574219 24.042969 58.558594 20.195312 56.484375 C 15.050781 53.777344 10.847656 49.347656 8.433594 44.085938 C 5.671875 38.160156 5.25 31.226562 7.222656 25 C 8.550781 20.722656 11.011719 16.804688 14.273438 13.71875 C 15.109375 12.9375 15.953125 12.09375 16.996094 11.597656 Z M 16.996094 11.597656 "/>
</g>
</svg>
