<?xml version="1.0" encoding="UTF-8"?>
<svg xmlns="http://www.w3.org/2000/svg" xmlns:xlink="http://www.w3.org/1999/xlink" width="px" height="64px" viewBox="0 0 64 64" version="1.1">
<defs>
<linearGradient id="linear0" gradientUnits="userSpaceOnUse" x1="3.00352" y1="17.1592" x2="27.004" y2="17.1592" gradientTransform="matrix(2,0,0,2,0,0)">
<stop offset="0" style="stop-color:rgb(66.27451%,22.745098%,100%);stop-opacity:1;"/>
<stop offset="1" style="stop-color:rgb(100%,50.588235%,100%);stop-opacity:1;"/>
</linearGradient>
<linearGradient id="linear1" gradientUnits="userSpaceOnUse" x1="14.0022" y1="8.8222" x2="29.0025" y2="8.8222" gradientTransform="matrix(2,0,0,2,0,0)">
<stop offset="0" style="stop-color:rgb(66.27451%,22.745098%,100%);stop-opacity:1;"/>
<stop offset="1" style="stop-color:rgb(100%,50.588235%,100%);stop-opacity:1;"/>
</linearGradient>
</defs>
<g id="surface1">
<path style=" stroke:none;fill-rule:nonzero;fill:url(#linear0);" d="M 19 12 C 15.054688 14.148438 11.773438 17.257812 9.492188 21.011719 C 7.207031 24.769531 6.003906 29.039062 6 33.386719 C 6 39.914062 8.707031 46.171875 13.519531 50.789062 C 18.335938 55.40625 24.867188 58 31.679688 58 C 36.210938 57.996094 40.65625 56.839844 44.570312 54.65625 C 48.484375 52.472656 51.726562 49.332031 53.96875 45.5625 C 53.980469 45.554688 53.988281 45.546875 54 45.542969 L 51.625 43.273438 C 51.621094 43.277344 51.617188 43.285156 51.613281 43.289062 C 48.429688 44.867188 44.894531 45.691406 41.3125 45.691406 C 35.351562 45.691406 29.636719 43.421875 25.421875 39.382812 C 21.210938 35.34375 18.84375 29.867188 18.84375 24.15625 C 18.847656 20.714844 19.710938 17.324219 21.363281 14.269531 Z M 16.609375 17.449219 C 15.964844 19.628906 15.632812 21.886719 15.632812 24.15625 C 15.632812 30.683594 18.335938 36.945312 23.152344 41.558594 C 27.96875 46.175781 34.5 48.769531 41.3125 48.769531 C 43.6875 48.761719 46.054688 48.4375 48.339844 47.808594 C 46.234375 50.042969 43.667969 51.832031 40.796875 53.058594 C 37.925781 54.28125 34.820312 54.917969 31.679688 54.921875 C 25.71875 54.921875 20.007812 52.652344 15.792969 48.613281 C 11.578125 44.574219 9.210938 39.097656 9.210938 33.386719 C 9.21875 30.382812 9.878906 27.414062 11.152344 24.667969 C 12.425781 21.921875 14.285156 19.464844 16.609375 17.449219 Z M 16.609375 17.449219 "/>
<path style=" stroke:none;fill-rule:nonzero;fill:url(#linear1);" d="M 28 16.285156 L 28 19.714844 L 35.644531 19.714844 L 28.976562 26.570312 L 28 27.574219 L 28 30 L 41.332031 30 L 41.332031 26.570312 L 33.691406 26.570312 L 40.355469 19.714844 L 41.332031 18.710938 L 41.332031 16.285156 Z M 44.667969 6 L 44.667969 9.429688 L 52.308594 9.429688 L 45.644531 16.285156 L 44.667969 17.289062 L 44.667969 19.714844 L 58 19.714844 L 58 16.285156 L 50.355469 16.285156 L 57.023438 9.429688 L 58 8.425781 L 58 6 Z M 44.667969 6 "/>
</g>
</svg>
