<?xml version="1.0" encoding="UTF-8"?>
<svg xmlns="http://www.w3.org/2000/svg" xmlns:xlink="http://www.w3.org/1999/xlink" width="px" height="120px" viewBox="0 0 120 120" version="1.1">
<g id="surface1">
<path style=" stroke:none;fill-rule:nonzero;fill:rgb(87.058824%,87.058824%,87.058824%);fill-opacity:1;" d="M 67.5 30 C 62.679688 30 58.4375 32.316406 55.691406 35.851562 C 56.929688 36.273438 58.117188 36.792969 59.238281 37.417969 C 61.292969 35.179688 64.21875 33.75 67.5 33.75 C 73.714844 33.75 78.75 38.785156 78.75 45 C 78.75 50.246094 75.148438 54.617188 70.289062 55.863281 C 70.292969 55.992188 70.3125 56.117188 70.3125 56.25 C 70.3125 57.441406 70.191406 58.601562 70.003906 59.742188 C 77.089844 58.546875 82.5 52.425781 82.5 45 C 82.5 36.714844 75.785156 30 67.5 30 Z M 48.75 75 C 34.195312 75 22.5 85.085938 22.5 99.132812 C 22.511719 101.109375 22.757812 103.078125 23.242188 105 L 74.460938 105 C 74.945312 103.078125 74.988281 101.113281 75 99.136719 C 75 85.085938 63.304688 75 48.75 75 Z M 48.851562 78.71875 C 63.152344 78.71875 71.25 87.25 71.25 99.136719 C 71.246094 99.789062 71.207031 100.4375 71.140625 101.089844 L 26.359375 101.089844 C 26.292969 100.4375 26.257812 99.785156 26.25 99.132812 C 26.25 87.246094 34.425781 78.71875 48.648438 78.71875 Z M 72.191406 63.75 C 71.230469 63.75 70.28125 63.808594 69.347656 63.910156 C 68.875 65.351562 68.253906 66.726562 67.5 68.027344 C 69.039062 67.683594 70.613281 67.507812 72.191406 67.5 C 84.019531 67.5 93.605469 76.734375 93.605469 88.125 C 93.601562 88.75 93.574219 89.375 93.507812 90 L 76.519531 90 C 76.925781 91.203125 77.277344 92.433594 77.53125 93.699219 L 96.785156 93.75 C 97.25 91.90625 97.488281 90.019531 97.5 88.125 C 97.5 74.664062 86.167969 63.75 72.191406 63.75 Z M 48.75 41.25 C 40.464844 41.25 33.75 47.964844 33.75 56.25 C 33.75 64.535156 40.464844 71.25 48.75 71.25 C 57.035156 71.25 63.75 64.535156 63.75 56.25 C 63.75 47.964844 57.035156 41.25 48.75 41.25 Z M 48.75 45 C 54.964844 45 60 50.035156 60 56.25 C 60 62.464844 54.964844 67.5 48.75 67.5 C 42.535156 67.5 37.5 62.464844 37.5 56.25 C 37.5 50.035156 42.535156 45 48.75 45 Z M 60.101562 14.25 C 52.472656 14.25 46.285156 20.421875 46.285156 28.03125 L 46.285156 30.339844 L 40.261719 23.953125 L 37.960938 26.742188 L 46.335938 35.09375 L 48.75 37.5 L 50.933594 34.714844 L 58.671875 26.363281 L 56.257812 23.957031 L 49.855469 30.339844 L 49.855469 28.03125 C 49.855469 22.59375 54.652344 18.1875 60.101562 18.1875 C 65.550781 18.1875 67.5 20.132812 67.5 25.570312 L 71.25 25.570312 C 71.25 17.695312 67.0625 14.398438 60.101562 14.25 Z M 60.101562 14.25 "/>
</g>
</svg>
