<?xml version="1.0" encoding="UTF-8"?>
<svg xmlns="http://www.w3.org/2000/svg" xmlns:xlink="http://www.w3.org/1999/xlink" width="px" height="120px" viewBox="0 0 120 120" version="1.1">
<g id="surface1">
<path style=" stroke:none;fill-rule:nonzero;fill:rgb(87.058824%,87.058824%,87.058824%);fill-opacity:1;" d="M 60 15 C 49.613281 15 41.25 23.363281 41.25 33.75 L 41.25 56.25 L 33.75 56.25 C 27.515625 56.25 22.5 61.265625 22.5 67.5 L 22.5 93.75 C 22.5 99.984375 27.515625 105 33.75 105 L 86.25 105 C 92.484375 105 97.5 99.984375 97.5 93.75 L 97.5 67.5 C 97.5 61.265625 92.484375 56.25 86.25 56.25 L 78.75 56.25 L 78.75 33.75 C 78.75 23.363281 70.386719 15 60 15 Z M 60 18.75 C 68.308594 18.75 75 25.441406 75 33.75 L 75 56.25 L 45 56.25 L 45 33.75 C 45 25.441406 51.691406 18.75 60 18.75 Z M 33.75 60 L 86.25 60 C 90.40625 60 93.75 63.34375 93.75 67.5 L 93.75 93.75 C 93.75 97.90625 90.40625 101.25 86.25 101.25 L 33.75 101.25 C 29.59375 101.25 26.25 97.90625 26.25 93.75 L 26.25 67.5 C 26.25 63.34375 29.59375 60 33.75 60 Z M 33.75 60 "/>
</g>
</svg>
