<?xml version="1.0" encoding="UTF-8"?>
<svg xmlns="http://www.w3.org/2000/svg" xmlns:xlink="http://www.w3.org/1999/xlink" width="px" height="120px" viewBox="0 0 120 120" version="1.1">
<g id="surface1">
<path style=" stroke:none;fill-rule:nonzero;fill:rgb(87.058824%,87.058824%,87.058824%);fill-opacity:1;" d="M 60 15 C 35.148438 15 15 35.148438 15 60 C 15 84.851562 35.148438 105 60 105 C 84.851562 105 105 84.851562 105 60 C 105 35.148438 84.851562 15 60 15 Z M 60 18.75 C 82.78125 18.75 101.25 37.21875 101.25 60 C 101.25 82.78125 82.78125 101.25 60 101.25 C 37.21875 101.25 18.75 82.78125 18.75 60 C 18.75 37.21875 37.21875 18.75 60 18.75 Z M 72.261719 30 L 41.25 60 L 72.261719 90 L 75 87.347656 L 46.730469 60 L 75 32.652344 Z M 72.261719 30 "/>
</g>
</svg>
