<?xml version="1.0" encoding="UTF-8"?>
<svg xmlns="http://www.w3.org/2000/svg" xmlns:xlink="http://www.w3.org/1999/xlink" width="px" height="120px" viewBox="0 0 120 120" version="1.1">
<g id="surface1">
<path style=" stroke:none;fill-rule:nonzero;fill:rgb(87.058824%,87.058824%,87.058824%);fill-opacity:1;" d="M 15 60 C 15.015625 51.972656 17.183594 44.09375 21.269531 37.183594 L 41.441406 57.347656 L 38.773438 60 L 22.257812 43.484375 C 19.960938 48.6875 18.769531 54.3125 18.75 60 C 18.75 82.78125 37.21875 101.25 60 101.25 C 67.027344 101.234375 73.9375 99.421875 80.066406 95.984375 L 82.800781 98.730469 C 75.894531 102.816406 68.023438 104.980469 60 105 C 35.148438 105 15 84.851562 15 60 Z M 37.183594 21.269531 C 44.09375 17.183594 51.972656 15.015625 60 15 C 84.851562 15 105 35.148438 105 60 C 104.984375 68.027344 102.816406 75.90625 98.730469 82.816406 L 78.558594 62.652344 L 81.210938 60 L 97.726562 76.523438 C 100.027344 71.316406 101.226562 65.691406 101.25 60 C 101.25 37.21875 82.78125 18.75 60 18.75 C 52.972656 18.765625 46.0625 20.578125 39.933594 24.015625 Z M 37.183594 21.269531 "/>
</g>
</svg>
