<?xml version="1.0" encoding="UTF-8"?>
<svg xmlns="http://www.w3.org/2000/svg" xmlns:xlink="http://www.w3.org/1999/xlink" width="px" height="120px" viewBox="0 0 120 120" version="1.1">
<g id="surface1">
<path style=" stroke:none;fill-rule:nonzero;fill:rgb(87.058824%,87.058824%,87.058824%);fill-opacity:1;" d="M 60 15 C 57.921875 15 56.25 16.671875 56.25 18.75 L 56.25 45 C 56.25 47.078125 57.921875 48.75 60 48.75 C 62.078125 48.75 63.75 47.078125 63.75 45 L 63.75 18.75 C 63.75 16.671875 62.078125 15 60 15 Z M 88.492188 25.179688 L 86.105469 28.09375 C 95.679688 35.921875 101.238281 47.632812 101.25 60 C 101.25 82.78125 82.78125 101.25 60 101.25 C 37.21875 101.25 18.75 82.78125 18.75 60 C 18.757812 47.628906 24.3125 35.917969 33.890625 28.089844 L 31.53125 25.203125 C 21.082031 33.738281 15.015625 46.507812 15 60 C 15 84.851562 35.148438 105 60 105 C 84.851562 105 105 84.851562 105 60 C 104.996094 46.503906 98.9375 33.722656 88.492188 25.179688 Z M 88.492188 25.179688 "/>
</g>
</svg>
