<?xml version="1.0" encoding="UTF-8"?>
<svg xmlns="http://www.w3.org/2000/svg" xmlns:xlink="http://www.w3.org/1999/xlink" width="px" height="120px" viewBox="0 0 120 120" version="1.1">
<g id="surface1">
<path style=" stroke:none;fill-rule:nonzero;fill:rgb(87.058824%,87.058824%,87.058824%);fill-opacity:1;" d="M 36.609375 21.609375 C 36.601562 21.617188 36.597656 21.628906 36.59375 21.636719 C 23.203125 29.792969 15.023438 44.324219 15 60 C 15 84.851562 35.148438 105 60 105 C 75.6875 104.984375 90.238281 96.796875 98.390625 83.390625 L 95.648438 80.648438 C 89.378906 84.296875 82.253906 86.230469 75 86.25 C 52.21875 86.25 33.75 67.78125 33.75 45 C 33.761719 37.753906 35.683594 30.636719 39.324219 24.367188 C 39.332031 24.363281 39.34375 24.359375 39.351562 24.351562 Z M 33 28.882812 C 31.023438 34.027344 30.003906 39.488281 30 45 C 30 69.851562 50.148438 90 75 90 C 80.550781 89.984375 86.050781 88.941406 91.222656 86.925781 C 83.394531 96.011719 71.996094 101.242188 60 101.25 C 37.21875 101.25 18.75 82.78125 18.75 60 C 18.769531 48.050781 23.96875 36.699219 33 28.878906 Z M 82.5 22.5 L 82.5 26.25 L 91.097656 26.25 L 82.5 34.847656 L 82.5 37.5 L 97.5 37.5 L 97.5 33.75 L 88.902344 33.75 L 97.5 25.152344 L 97.5 22.5 Z M 82.5 22.5 "/>
<path style=" stroke:none;fill-rule:nonzero;fill:rgb(87.058824%,87.058824%,87.058824%);fill-opacity:1;" d="M 75 48.75 L 75 52.5 L 83.597656 52.5 L 75 61.097656 L 75 63.75 L 90 63.75 L 90 60 L 81.402344 60 L 90 51.402344 L 90 48.75 Z M 52.5 30 L 52.5 33.75 L 61.097656 33.75 L 52.5 42.347656 L 52.5 45 L 67.5 45 L 67.5 41.25 L 58.902344 41.25 L 67.5 32.652344 L 67.5 30 Z M 52.5 30 "/>
</g>
</svg>
